<svg xmlns="http://www.w3.org/2000/svg" version="1.1" xmlns:xlink="http://www.w3.org/1999/xlink" xmlns:svgjs="http://svgjs.com/svgjs" width="1000" height="500" preserveAspectRatio="none" viewBox="0 0 1000 500"><g mask="url(&quot;#SvgjsMask1019&quot;)" fill="none"><rect width="1000" height="500" x="0" y="0" fill="rgba(18, 18, 18, 1)"></rect><path d="M227.69 531.41C326.49 498.95 291.45 211.71 493.3 211.28 695.15 210.85 883.51 398.45 1024.53 401.28" stroke="rgba(156, 201, 245, 0.39)" stroke-width="2"></path><path d="M224.96 587.22C372.43 556.82 438.19 177.1 664.58 175.51 890.96 173.92 984.04 366.2 1104.19 370.51" stroke="rgba(156, 201, 245, 0.39)" stroke-width="2"></path><path d="M366.43 546.58C466.79 501.75 424.84 184.98 615.44 184.21 806.05 183.44 978.41 389.97 1113.47 394.21" stroke="rgba(156, 201, 245, 0.39)" stroke-width="2"></path><path d="M532.08 588.73C640.24 539.99 656.77 200.22 799.78 196.91 942.78 193.6 985.93 377.58 1067.47 386.91" stroke="rgba(156, 201, 245, 0.39)" stroke-width="2"></path><path d="M425.29 533.08C555.73 492.06 595.84 118.36 779.75 116.55 963.65 114.74 1030.27 327.85 1134.2 336.55" stroke="rgba(156, 201, 245, 0.39)" stroke-width="2"></path></g><defs><mask id="SvgjsMask1019"><rect width="1000" height="500" fill="#ffffff"></rect></mask></defs></svg>